<svg id="SvgjsSvg1026" width="288" height="288" xmlns="http://www.w3.org/2000/svg" version="1.1" xmlns:xlink="http://www.w3.org/1999/xlink" xmlns:svgjs="http://svgjs.com/svgjs"><defs id="SvgjsDefs1027"></defs><g id="SvgjsG1028"><svg xmlns="http://www.w3.org/2000/svg" enable-background="new 0 0 512 512" viewBox="0 0 512 512" width="288" height="288"><path fill="#b1c3c8" d="M468.4 152.8H44.9c-24.1 0-43.6-19.5-43.6-43.6s19.5-43.6 43.6-43.6h423.5c24.1 0 43.6 19.5 43.6 43.6S492.5 152.8 468.4 152.8zM467.1 297.4H43.6C19.5 297.4 0 277.9 0 253.8s19.5-43.6 43.6-43.6h423.5c24.1 0 43.6 19.5 43.6 43.6S491.2 297.4 467.1 297.4zM467.1 446.5H43.6C19.5 446.5 0 427 0 402.9s19.5-43.6 43.6-43.6h423.5c24.1 0 43.6 19.5 43.6 43.6S491.2 446.5 467.1 446.5z" class="color231f20 svgShape"></path></svg></g></svg>